<svg width="181" height="48" viewBox="0 0 181 48" fill="none" xmlns="http://www.w3.org/2000/svg">
<path d="M0.517045 18V0.545454H7.50568C8.78977 0.545454 9.8608 0.735795 10.7188 1.11648C11.5767 1.49716 12.2216 2.02557 12.6534 2.7017C13.0852 3.37216 13.3011 4.14489 13.3011 5.01989C13.3011 5.7017 13.1648 6.30114 12.892 6.81818C12.6193 7.32955 12.2443 7.75 11.767 8.07955C11.2955 8.40341 10.7557 8.63352 10.1477 8.76989V8.94034C10.8125 8.96875 11.4347 9.15625 12.0142 9.50284C12.5994 9.84943 13.0739 10.3352 13.4375 10.9602C13.8011 11.5795 13.983 12.3182 13.983 13.1761C13.983 14.1023 13.7528 14.929 13.2926 15.6562C12.8381 16.3778 12.1648 16.9489 11.2727 17.3693C10.3807 17.7898 9.28125 18 7.97443 18H0.517045ZM4.20739 14.983H7.21591C8.24432 14.983 8.99432 14.7869 9.46591 14.3949C9.9375 13.9972 10.1733 13.4687 10.1733 12.8097C10.1733 12.3267 10.0568 11.9006 9.82386 11.5312C9.59091 11.1619 9.25852 10.8722 8.8267 10.6619C8.40057 10.4517 7.89205 10.3466 7.30114 10.3466H4.20739V14.983ZM4.20739 7.84943H6.94318C7.44886 7.84943 7.89773 7.76136 8.28977 7.58523C8.6875 7.40341 9 7.14773 9.22727 6.81818C9.46023 6.48864 9.5767 6.09375 9.5767 5.63352C9.5767 5.00284 9.35227 4.49432 8.90341 4.10795C8.46023 3.72159 7.82955 3.52841 7.01136 3.52841H4.20739V7.84943ZM16.3842 18V0.545454H23.2706C24.5888 0.545454 25.7138 0.78125 26.6456 1.25284C27.5831 1.71875 28.2962 2.38068 28.7848 3.23864C29.2791 4.09091 29.5263 5.09375 29.5263 6.24716C29.5263 7.40625 29.2763 8.40341 28.7763 9.23864C28.2763 10.0682 27.5518 10.7045 26.603 11.1477C25.6598 11.5909 24.5178 11.8125 23.1768 11.8125H18.5661V8.84659H22.5803C23.2848 8.84659 23.87 8.75 24.3359 8.55682C24.8018 8.36364 25.1484 8.07386 25.3757 7.6875C25.6087 7.30114 25.7251 6.82102 25.7251 6.24716C25.7251 5.66761 25.6087 5.17898 25.3757 4.78125C25.1484 4.38352 24.799 4.08239 24.3274 3.87784C23.8615 3.66761 23.2734 3.5625 22.5632 3.5625H20.0746V18H16.3842ZM25.8104 10.0568L30.1484 18H26.0746L21.8303 10.0568H25.8104ZM48.174 9.27273C48.174 11.1761 47.8132 12.7955 47.0916 14.1307C46.3757 15.4659 45.3984 16.4858 44.1598 17.1903C42.9268 17.8892 41.5405 18.2386 40.0007 18.2386C38.4496 18.2386 37.0575 17.8864 35.8246 17.1818C34.5916 16.4773 33.6172 15.4574 32.9013 14.1222C32.1854 12.7869 31.8274 11.1705 31.8274 9.27273C31.8274 7.36932 32.1854 5.75 32.9013 4.41477C33.6172 3.07955 34.5916 2.0625 35.8246 1.36364C37.0575 0.659091 38.4496 0.306818 40.0007 0.306818C41.5405 0.306818 42.9268 0.659091 44.1598 1.36364C45.3984 2.0625 46.3757 3.07955 47.0916 4.41477C47.8132 5.75 48.174 7.36932 48.174 9.27273ZM44.4325 9.27273C44.4325 8.03977 44.2479 7 43.8786 6.15341C43.5149 5.30682 43.0007 4.66477 42.3359 4.22727C41.6712 3.78977 40.8928 3.57102 40.0007 3.57102C39.1087 3.57102 38.3303 3.78977 37.6655 4.22727C37.0007 4.66477 36.4837 5.30682 36.1143 6.15341C35.7507 7 35.5689 8.03977 35.5689 9.27273C35.5689 10.5057 35.7507 11.5455 36.1143 12.392C36.4837 13.2386 37.0007 13.8807 37.6655 14.3182C38.3303 14.7557 39.1087 14.9744 40.0007 14.9744C40.8928 14.9744 41.6712 14.7557 42.3359 14.3182C43.0007 13.8807 43.5149 13.2386 43.8786 12.392C44.2479 11.5455 44.4325 10.5057 44.4325 9.27273ZM54.1804 18L49.1861 0.545454H53.2173L56.1065 12.6733H56.2514L59.4389 0.545454H62.8906L66.0696 12.6989H66.223L69.1122 0.545454H73.1435L68.1491 18H64.5526L61.2287 6.58807H61.0923L57.777 18H54.1804ZM89.718 0.545454V18H86.5305L78.9368 7.0142H78.8089V18H75.1186V0.545454H78.3572L85.8913 11.5227H86.0447V0.545454H89.718Z" fill="black"/>
<path d="M0.517045 29.5455H5.06818L9.875 41.2727H10.0795L14.8864 29.5455H19.4375V47H15.858V35.6392H15.7131L11.196 46.9148H8.75852L4.24148 35.5966H4.09659V47H0.517045V29.5455ZM25.4865 47H21.532L27.5575 29.5455H32.3132L38.3303 47H34.3757L30.0036 33.5341H29.8672L25.4865 47ZM25.2393 40.1392H34.5803V43.0199H25.2393V40.1392ZM40.4311 47V29.5455H47.3175C48.6357 29.5455 49.7607 29.7812 50.6925 30.2528C51.63 30.7187 52.343 31.3807 52.8317 32.2386C53.326 33.0909 53.5732 34.0937 53.5732 35.2472C53.5732 36.4062 53.3232 37.4034 52.8232 38.2386C52.3232 39.0682 51.5987 39.7045 50.6499 40.1477C49.7067 40.5909 48.5646 40.8125 47.2237 40.8125H42.6129V37.8466H46.6271C47.3317 37.8466 47.9169 37.75 48.3828 37.5568C48.8487 37.3636 49.1953 37.0739 49.4226 36.6875C49.6555 36.3011 49.772 35.821 49.772 35.2472C49.772 34.6676 49.6555 34.179 49.4226 33.7812C49.1953 33.3835 48.8459 33.0824 48.3743 32.8778C47.9084 32.6676 47.3203 32.5625 46.6101 32.5625H44.1214V47H40.4311ZM49.8572 39.0568L54.1953 47H50.1214L45.8771 39.0568H49.8572ZM56.1811 47V29.5455H59.8714V37.2415H60.1016L66.3828 29.5455H70.8061L64.3288 37.3608L70.8828 47H66.468L61.6868 39.8239L59.8714 42.0398V47H56.1811ZM72.728 47V29.5455H84.4893V32.5881H76.4183V36.7472H83.8842V39.7898H76.4183V43.9574H84.5234V47H72.728ZM86.7585 32.5881V29.5455H101.094V32.5881H95.75V47H92.1023V32.5881H86.7585ZM103.455 47V29.5455H110.341C111.665 29.5455 112.793 29.7983 113.724 30.304C114.656 30.804 115.366 31.5 115.855 32.392C116.349 33.2784 116.597 34.3011 116.597 35.4602C116.597 36.6193 116.347 37.642 115.847 38.5284C115.347 39.4148 114.622 40.1051 113.673 40.5994C112.73 41.0937 111.588 41.3409 110.247 41.3409H105.858V38.3835H109.651C110.361 38.3835 110.946 38.2614 111.406 38.017C111.872 37.767 112.219 37.4233 112.446 36.9858C112.679 36.5426 112.795 36.0341 112.795 35.4602C112.795 34.8807 112.679 34.375 112.446 33.9432C112.219 33.5057 111.872 33.1676 111.406 32.929C110.94 32.6847 110.349 32.5625 109.634 32.5625H107.145V47H103.455ZM118.994 47V29.5455H122.684V43.9574H130.167V47H118.994ZM136.065 47H132.11L138.136 29.5455H142.891L148.908 47H144.954L140.582 33.5341H140.445L136.065 47ZM135.817 40.1392H145.158V43.0199H135.817V40.1392ZM165.589 35.6562H161.857C161.788 35.1733 161.649 34.7443 161.439 34.3693C161.229 33.9886 160.959 33.6648 160.629 33.3977C160.3 33.1307 159.919 32.9261 159.487 32.7841C159.061 32.642 158.598 32.571 158.098 32.571C157.195 32.571 156.408 32.7955 155.737 33.2443C155.067 33.6875 154.547 34.3352 154.178 35.1875C153.808 36.0341 153.624 37.0625 153.624 38.2727C153.624 39.517 153.808 40.5625 154.178 41.4091C154.553 42.2557 155.075 42.8949 155.746 43.3267C156.416 43.7585 157.192 43.9744 158.072 43.9744C158.567 43.9744 159.024 43.9091 159.445 43.7784C159.871 43.6477 160.249 43.4574 160.578 43.2074C160.908 42.9517 161.18 42.642 161.396 42.2784C161.618 41.9148 161.771 41.5 161.857 41.0341L165.589 41.0511C165.493 41.8523 165.251 42.625 164.865 43.3693C164.484 44.108 163.97 44.7699 163.322 45.3551C162.68 45.9347 161.913 46.3949 161.021 46.7358C160.135 47.071 159.132 47.2386 158.013 47.2386C156.456 47.2386 155.064 46.8864 153.837 46.1818C152.615 45.4773 151.649 44.4574 150.939 43.1222C150.234 41.7869 149.882 40.1705 149.882 38.2727C149.882 36.3693 150.24 34.75 150.956 33.4148C151.672 32.0795 152.643 31.0625 153.871 30.3636C155.098 29.6591 156.479 29.3068 158.013 29.3068C159.024 29.3068 159.962 29.4489 160.825 29.733C161.695 30.017 162.464 30.4318 163.135 30.9773C163.805 31.517 164.351 32.179 164.771 32.9631C165.197 33.7472 165.47 34.6449 165.589 35.6562ZM168.236 47V29.5455H179.997V32.5881H171.926V36.7472H179.392V39.7898H171.926V43.9574H180.031V47H168.236Z" fill="url(#paint0_linear_365_31)"/>
<defs>
<linearGradient id="paint0_linear_365_31" x1="6.3125" y1="34" x2="215.383" y2="70.4756" gradientUnits="userSpaceOnUse">
<stop stop-color="#92A3FD"/>
<stop offset="1" stop-color="#9DCEFF"/>
</linearGradient>
</defs>
</svg>
