<svg width="181" height="47" viewBox="0 0 181 47" fill="none" xmlns="http://www.w3.org/2000/svg">
<path d="M0.517045 17V-0.454546H7.50568C8.78977 -0.454546 9.8608 -0.264205 10.7188 0.116477C11.5767 0.497159 12.2216 1.02557 12.6534 1.7017C13.0852 2.37216 13.3011 3.14489 13.3011 4.01989C13.3011 4.7017 13.1648 5.30114 12.892 5.81818C12.6193 6.32955 12.2443 6.75 11.767 7.07955C11.2955 7.40341 10.7557 7.63352 10.1477 7.76989V7.94034C10.8125 7.96875 11.4347 8.15625 12.0142 8.50284C12.5994 8.84943 13.0739 9.33523 13.4375 9.96023C13.8011 10.5795 13.983 11.3182 13.983 12.1761C13.983 13.1023 13.7528 13.929 13.2926 14.6562C12.8381 15.3778 12.1648 15.9489 11.2727 16.3693C10.3807 16.7898 9.28125 17 7.97443 17H0.517045ZM4.20739 13.983H7.21591C8.24432 13.983 8.99432 13.7869 9.46591 13.3949C9.9375 12.9972 10.1733 12.4687 10.1733 11.8097C10.1733 11.3267 10.0568 10.9006 9.82386 10.5312C9.59091 10.1619 9.25852 9.87216 8.8267 9.66193C8.40057 9.4517 7.89205 9.34659 7.30114 9.34659H4.20739V13.983ZM4.20739 6.84943H6.94318C7.44886 6.84943 7.89773 6.76136 8.28977 6.58523C8.6875 6.40341 9 6.14773 9.22727 5.81818C9.46023 5.48864 9.5767 5.09375 9.5767 4.63352C9.5767 4.00284 9.35227 3.49432 8.90341 3.10795C8.46023 2.72159 7.82955 2.52841 7.01136 2.52841H4.20739V6.84943ZM16.3842 17V-0.454546H23.2706C24.5888 -0.454546 25.7138 -0.21875 26.6456 0.252841C27.5831 0.71875 28.2962 1.38068 28.7848 2.23864C29.2791 3.09091 29.5263 4.09375 29.5263 5.24716C29.5263 6.40625 29.2763 7.40341 28.7763 8.23864C28.2763 9.06818 27.5518 9.70455 26.603 10.1477C25.6598 10.5909 24.5178 10.8125 23.1768 10.8125H18.5661V7.84659H22.5803C23.2848 7.84659 23.87 7.75 24.3359 7.55682C24.8018 7.36364 25.1484 7.07386 25.3757 6.6875C25.6087 6.30114 25.7251 5.82102 25.7251 5.24716C25.7251 4.66761 25.6087 4.17898 25.3757 3.78125C25.1484 3.38352 24.799 3.08239 24.3274 2.87784C23.8615 2.66761 23.2734 2.5625 22.5632 2.5625H20.0746V17H16.3842ZM25.8104 9.05682L30.1484 17H26.0746L21.8303 9.05682H25.8104ZM48.174 8.27273C48.174 10.1761 47.8132 11.7955 47.0916 13.1307C46.3757 14.4659 45.3984 15.4858 44.1598 16.1903C42.9268 16.8892 41.5405 17.2386 40.0007 17.2386C38.4496 17.2386 37.0575 16.8864 35.8246 16.1818C34.5916 15.4773 33.6172 14.4574 32.9013 13.1222C32.1854 11.7869 31.8274 10.1705 31.8274 8.27273C31.8274 6.36932 32.1854 4.75 32.9013 3.41477C33.6172 2.07955 34.5916 1.0625 35.8246 0.363636C37.0575 -0.340909 38.4496 -0.693182 40.0007 -0.693182C41.5405 -0.693182 42.9268 -0.340909 44.1598 0.363636C45.3984 1.0625 46.3757 2.07955 47.0916 3.41477C47.8132 4.75 48.174 6.36932 48.174 8.27273ZM44.4325 8.27273C44.4325 7.03977 44.2479 6 43.8786 5.15341C43.5149 4.30682 43.0007 3.66477 42.3359 3.22727C41.6712 2.78977 40.8928 2.57102 40.0007 2.57102C39.1087 2.57102 38.3303 2.78977 37.6655 3.22727C37.0007 3.66477 36.4837 4.30682 36.1143 5.15341C35.7507 6 35.5689 7.03977 35.5689 8.27273C35.5689 9.50568 35.7507 10.5455 36.1143 11.392C36.4837 12.2386 37.0007 12.8807 37.6655 13.3182C38.3303 13.7557 39.1087 13.9744 40.0007 13.9744C40.8928 13.9744 41.6712 13.7557 42.3359 13.3182C43.0007 12.8807 43.5149 12.2386 43.8786 11.392C44.2479 10.5455 44.4325 9.50568 44.4325 8.27273ZM54.1804 17L49.1861 -0.454546H53.2173L56.1065 11.6733H56.2514L59.4389 -0.454546H62.8906L66.0696 11.6989H66.223L69.1122 -0.454546H73.1435L68.1491 17H64.5526L61.2287 5.58807H61.0923L57.777 17H54.1804ZM89.718 -0.454546V17H86.5305L78.9368 6.0142H78.8089V17H75.1186V-0.454546H78.3572L85.8913 10.5227H86.0447V-0.454546H89.718Z" fill="white"/>
<path d="M0.517045 28.5455H5.06818L9.875 40.2727H10.0795L14.8864 28.5455H19.4375V46H15.858V34.6392H15.7131L11.196 45.9148H8.75852L4.24148 34.5966H4.09659V46H0.517045V28.5455ZM25.4865 46H21.532L27.5575 28.5455H32.3132L38.3303 46H34.3757L30.0036 32.5341H29.8672L25.4865 46ZM25.2393 39.1392H34.5803V42.0199H25.2393V39.1392ZM40.4311 46V28.5455H47.3175C48.6357 28.5455 49.7607 28.7812 50.6925 29.2528C51.63 29.7187 52.343 30.3807 52.8317 31.2386C53.326 32.0909 53.5732 33.0937 53.5732 34.2472C53.5732 35.4062 53.3232 36.4034 52.8232 37.2386C52.3232 38.0682 51.5987 38.7045 50.6499 39.1477C49.7067 39.5909 48.5646 39.8125 47.2237 39.8125H42.6129V36.8466H46.6271C47.3317 36.8466 47.9169 36.75 48.3828 36.5568C48.8487 36.3636 49.1953 36.0739 49.4226 35.6875C49.6555 35.3011 49.772 34.821 49.772 34.2472C49.772 33.6676 49.6555 33.179 49.4226 32.7812C49.1953 32.3835 48.8459 32.0824 48.3743 31.8778C47.9084 31.6676 47.3203 31.5625 46.6101 31.5625H44.1214V46H40.4311ZM49.8572 38.0568L54.1953 46H50.1214L45.8771 38.0568H49.8572ZM56.1811 46V28.5455H59.8714V36.2415H60.1016L66.3828 28.5455H70.8061L64.3288 36.3608L70.8828 46H66.468L61.6868 38.8239L59.8714 41.0398V46H56.1811ZM72.728 46V28.5455H84.4893V31.5881H76.4183V35.7472H83.8842V38.7898H76.4183V42.9574H84.5234V46H72.728ZM86.7585 31.5881V28.5455H101.094V31.5881H95.75V46H92.1023V31.5881H86.7585ZM103.455 46V28.5455H110.341C111.665 28.5455 112.793 28.7983 113.724 29.304C114.656 29.804 115.366 30.5 115.855 31.392C116.349 32.2784 116.597 33.3011 116.597 34.4602C116.597 35.6193 116.347 36.642 115.847 37.5284C115.347 38.4148 114.622 39.1051 113.673 39.5994C112.73 40.0937 111.588 40.3409 110.247 40.3409H105.858V37.3835H109.651C110.361 37.3835 110.946 37.2614 111.406 37.017C111.872 36.767 112.219 36.4233 112.446 35.9858C112.679 35.5426 112.795 35.0341 112.795 34.4602C112.795 33.8807 112.679 33.375 112.446 32.9432C112.219 32.5057 111.872 32.1676 111.406 31.929C110.94 31.6847 110.349 31.5625 109.634 31.5625H107.145V46H103.455ZM118.994 46V28.5455H122.684V42.9574H130.167V46H118.994ZM136.065 46H132.11L138.136 28.5455H142.891L148.908 46H144.954L140.582 32.5341H140.445L136.065 46ZM135.817 39.1392H145.158V42.0199H135.817V39.1392ZM165.589 34.6562H161.857C161.788 34.1733 161.649 33.7443 161.439 33.3693C161.229 32.9886 160.959 32.6648 160.629 32.3977C160.3 32.1307 159.919 31.9261 159.487 31.7841C159.061 31.642 158.598 31.571 158.098 31.571C157.195 31.571 156.408 31.7955 155.737 32.2443C155.067 32.6875 154.547 33.3352 154.178 34.1875C153.808 35.0341 153.624 36.0625 153.624 37.2727C153.624 38.517 153.808 39.5625 154.178 40.4091C154.553 41.2557 155.075 41.8949 155.746 42.3267C156.416 42.7585 157.192 42.9744 158.072 42.9744C158.567 42.9744 159.024 42.9091 159.445 42.7784C159.871 42.6477 160.249 42.4574 160.578 42.2074C160.908 41.9517 161.18 41.642 161.396 41.2784C161.618 40.9148 161.771 40.5 161.857 40.0341L165.589 40.0511C165.493 40.8523 165.251 41.625 164.865 42.3693C164.484 43.108 163.97 43.7699 163.322 44.3551C162.68 44.9347 161.913 45.3949 161.021 45.7358C160.135 46.071 159.132 46.2386 158.013 46.2386C156.456 46.2386 155.064 45.8864 153.837 45.1818C152.615 44.4773 151.649 43.4574 150.939 42.1222C150.234 40.7869 149.882 39.1705 149.882 37.2727C149.882 35.3693 150.24 33.75 150.956 32.4148C151.672 31.0795 152.643 30.0625 153.871 29.3636C155.098 28.6591 156.479 28.3068 158.013 28.3068C159.024 28.3068 159.962 28.4489 160.825 28.733C161.695 29.017 162.464 29.4318 163.135 29.9773C163.805 30.517 164.351 31.179 164.771 31.9631C165.197 32.7472 165.47 33.6449 165.589 34.6562ZM168.236 46V28.5455H179.997V31.5881H171.926V35.7472H179.392V38.7898H171.926V42.9574H180.031V46H168.236Z" fill="url(#paint0_linear_487_38)"/>
<defs>
<linearGradient id="paint0_linear_487_38" x1="6.3125" y1="33" x2="215.383" y2="69.4756" gradientUnits="userSpaceOnUse">
<stop stop-color="#92A3FD"/>
<stop offset="1" stop-color="#9DCEFF"/>
</linearGradient>
</defs>
</svg>
